<svg xmlns="http://www.w3.org/2000/svg" width="95.086" height="60" viewBox="0 0 95.086 60">
  <g id="EFI_Logo" data-name="EFI Logo" transform="translate(23325.727 24491.652)">
    <path id="Path_200378" data-name="Path 200378" d="M100.845,125.535l2.771-7.5a11.019,11.019,0,0,1,9.673-5.785c2.865,0,5.022,1.531,5.407,4C115.49,117.95,100.845,125.535,100.845,125.535Zm27.813-1.36c4.257-12.5-.429-20.357-13.149-20.357a28.28,28.28,0,0,0-26.937,19.571c-4.3,12.645,2.447,19.5,14.583,19.5,8.361,0,17.91-3.93,22.923-12.576h-12.5a9.4,9.4,0,0,1-7.358,3.357c-5.355,0-7.165-2.849-5.371-8.139H128.2Z" transform="translate(-23413 -24583.406)" fill="#003383"/>
    <path id="Path_200379" data-name="Path 200379" d="M259.337,103.83c.988-2.91-.259-5.863-4.151-5.863a8.616,8.616,0,0,0-8.239,5.746c-1.322,3.713.749,5.723,4.461,5.723A8.448,8.448,0,0,0,259.337,103.83Z" transform="translate(-23493.742 -24580.439)" fill="#003383"/>
    <path id="Path_200380" data-name="Path 200380" d="M178.367,113.418,196.858,102.7H182l2.015-5.923c1.41-4.143,3.227-6.146,6.59-6.146a8.637,8.637,0,0,1,4.155,1.213l3.813-11.219a9.261,9.261,0,0,0-5.128-1.278A22.119,22.119,0,0,0,178.663,85.2c-4.841,4.2-6.358,7.788-8.085,12.855L169,102.7l-3.646,10.717-8.813,25.93h13Z" transform="translate(-23448.115 -24571)" fill="#003383"/>
    <path id="Path_200381" data-name="Path 200381" d="M244.52,126.68h-13l-8.973,26.306h13.006Z" transform="translate(-23481.576 -24594.994)" fill="#003383"/>
    <g id="Group_61624" data-name="Group 61624" transform="translate(-23235.117 -24468.324)">
      <path id="Path_200382" data-name="Path 200382" d="M273.3,126.662a2.247,2.247,0,1,1-.013,0Zm-.013.351a1.82,1.82,0,1,0,.013,0Zm-.418,3.228h-.4v-2.523a4.354,4.354,0,0,1,.716-.061,1.334,1.334,0,0,1,.783.191.6.6,0,0,1,.231.523.628.628,0,0,1-.493.615V129c.222.04.371.241.421.611a2.025,2.025,0,0,0,.162.624h-.42a1.776,1.776,0,0,1-.172-.644.473.473,0,0,0-.544-.441h-.281v1.084Zm0-1.4h.293c.332,0,.612-.122.612-.435,0-.219-.161-.44-.612-.44a1.792,1.792,0,0,0-.293.02Z" transform="translate(-271.048 -126.662)" fill="#003383"/>
    </g>
  </g>
</svg>
