<?xml version="1.0" encoding="UTF-8"?> <svg xmlns="http://www.w3.org/2000/svg" id="a" viewBox="0 0 191.55 38.87"><path id="b" d="M61.97,12.32c-1.12-1.1-2.44-1.98-3.89-2.57-1.52-.62-3.15-.93-4.79-.92-1.62,0-3.23.3-4.72.92-1.45.59-2.77,1.47-3.89,2.57-1.11,1.1-1.99,2.4-2.59,3.84-1.22,3.03-1.22,6.42,0,9.45.6,1.44,1.48,2.74,2.59,3.84,1.12,1.1,2.44,1.98,3.89,2.57,1.5.62,3.1.93,4.72.92,1.64.01,3.27-.3,4.79-.92,6.15-2.54,9.08-9.58,6.55-15.73-.61-1.49-1.52-2.84-2.66-3.97M61.29,24.37c-.42,1.05-1.04,2-1.84,2.8-.79.79-1.71,1.42-2.74,1.85-1.06.45-2.2.68-3.36.67-1.16,0-2.32-.22-3.39-.67-2.1-.87-3.75-2.55-4.57-4.66-.87-2.25-.87-4.73,0-6.98.83-2.1,2.47-3.78,4.56-4.66,3.24-1.39,7-.65,9.48,1.85.79.8,1.41,1.76,1.84,2.8.45,1.11.68,2.29.67,3.49.01,1.19-.21,2.38-.65,3.49" fill="#003166" stroke-width="0"></path><rect id="c" x="67.82" y="15.57" width="3.34" height="16.99" fill="#003166" stroke-width="0"></rect><path id="d" d="M69.49,8.69c-1.12,0-2.03.92-2.04,2.04-.01.55.21,1.08.6,1.47.37.39.89.61,1.43.6.55.01,1.08-.21,1.47-.6.39-.38.61-.89.6-1.44,0-1.13-.9-2.06-2.03-2.07-.01,0-.02,0-.04,0" fill="#003166" stroke-width="0"></path><path id="e" d="M89.75,15.57h-3.91l-8.25,7.44v-14.46l-3.34.63v23.37h3.34v-8.01l8.21,8.01h4.41l-9.25-9.05,8.78-7.95Z" fill="#003166" stroke-width="0"></path><path id="f" d="M101.82,16.43c-4.26-2.46-9.71-1.01-12.17,3.25-1.59,2.75-1.6,6.15-.01,8.9.77,1.32,1.87,2.42,3.2,3.17,2.8,1.54,6.18,1.54,8.98,0,1.33-.75,2.43-1.85,3.19-3.17.78-1.37,1.19-2.92,1.17-4.49.02-1.58-.38-3.13-1.17-4.49-.77-1.31-1.87-2.41-3.18-3.17M102.17,27.06c-.47.87-1.16,1.6-2,2.12-1.74,1.04-3.92,1.04-5.66,0-.85-.52-1.55-1.25-2.02-2.12-.5-.92-.75-1.95-.73-3-.02-1.03.24-2.05.73-2.96.48-.87,1.18-1.6,2.02-2.12,1.73-1.07,3.92-1.07,5.66,0,.84.53,1.52,1.26,2,2.12.5.91.75,1.92.73,2.96.02,1.05-.24,2.08-.73,3" fill="#003166" stroke-width="0"></path><path id="g" d="M113.9,18.98c.85-.52,1.83-.78,2.82-.77.86,0,1.71.18,2.5.54.83.38,1.57.92,2.17,1.6l2.07-2.3c-.87-.91-1.92-1.62-3.09-2.09-1.17-.47-2.42-.72-3.69-.72-1.56-.02-3.1.39-4.45,1.19-1.31.77-2.4,1.86-3.17,3.17-1.57,2.77-1.58,6.16-.02,8.93,1.58,2.72,4.5,4.38,7.65,4.34,1.24,0,2.48-.25,3.62-.73,1.15-.48,2.2-1.18,3.09-2.07l-2.04-2.17c-.62.63-1.34,1.15-2.14,1.52-.77.35-1.6.52-2.44.52-1,.01-1.98-.25-2.84-.77-.85-.51-1.54-1.25-2-2.12-.97-1.87-.98-4.09-.02-5.96.46-.86,1.14-1.59,1.97-2.1" fill="#003166" stroke-width="0"></path><path id="h" d="M130.57,15.87c-.8.46-1.48,1.1-1.99,1.87v-2.2h-3.34v17.02h3.34v-11.38c.38-.91,1-1.71,1.8-2.29.75-.52,1.65-.8,2.57-.79.35,0,.69.03,1.04.08.33.06.66.15.97.28v-3c-.55-.19-1.12-.28-1.7-.27-.94-.02-1.87.21-2.69.67" fill="#003166" stroke-width="0"></path><path id="i" d="M148.13,16.46c-1.25-.79-2.71-1.21-4.19-1.18-1.53-.02-3.03.39-4.34,1.18-1.28.78-2.34,1.86-3.09,3.15-2.44,4.23-.99,9.64,3.24,12.08.01,0,.02.01.03.02,1.38.78,2.94,1.17,4.52,1.15,1.19.01,2.37-.17,3.49-.55,1.1-.39,2.14-.96,3.05-1.69l-2.1-2.07c-.56.47-1.2.84-1.9,1.07-.77.27-1.58.4-2.4.4-.94.01-1.86-.21-2.69-.65-1.63-.85-2.76-2.44-3.02-4.26h13.42v-.9c.03-1.59-.35-3.15-1.09-4.56-.68-1.31-1.7-2.41-2.94-3.21M138.77,22.61c.14-.84.46-1.64.95-2.34.47-.66,1.08-1.2,1.79-1.59.72-.39,1.52-.59,2.34-.58.8,0,1.6.19,2.3.58.7.4,1.3.94,1.75,1.6.48.69.81,1.49.95,2.32h-10.08Z" fill="#003166" stroke-width="0"></path><path id="j" d="M167.78,16.98c-.72-.55-1.53-.97-2.4-1.25-.87-.28-1.78-.42-2.7-.42-1.54-.02-3.06.38-4.39,1.15-1.31.75-2.39,1.83-3.14,3.14-.77,1.34-1.17,2.87-1.15,4.42-.03,1.57.37,3.12,1.14,4.49,1.53,2.68,4.39,4.34,7.48,4.32,1.91.04,3.77-.64,5.21-1.9v1.64h3.3V8.56l-3.34.63v7.78ZM167.78,27.89c-.56.65-1.26,1.16-2.05,1.5-.85.36-1.76.55-2.69.54-2.07.02-3.98-1.1-4.99-2.9-1-1.88-1-4.13,0-6.01.48-.87,1.2-1.6,2.07-2.09.89-.5,1.9-.76,2.92-.75.92,0,1.84.18,2.69.53.8.33,1.5.84,2.05,1.5v7.68Z" fill="#003166" stroke-width="0"></path><path id="k" d="M175.89,8.69c-1.12,0-2.03.92-2.04,2.04-.01.55.21,1.08.6,1.47.38.39.89.61,1.44.6.55.01,1.08-.21,1.47-.6.39-.38.61-.89.6-1.44.01-1.13-.9-2.06-2.03-2.07-.01,0-.02,0-.04,0" fill="#003166" stroke-width="0"></path><rect id="l" x="174.22" y="15.57" width="3.34" height="16.99" fill="#003166" stroke-width="0"></rect><path id="m" d="M191.54,18.38v-2.8h-5.04v-5.15l-3.3.83v4.31h-3.61v2.8h3.61v9.98c-.09,1.26.38,2.5,1.3,3.37,1.07.83,2.4,1.23,3.75,1.14.55,0,1.11-.04,1.65-.12.53-.06,1.04-.18,1.55-.35v-2.84c-.38.15-.78.26-1.18.33-.41.07-.83.1-1.25.1-.69.06-1.37-.13-1.92-.55-.44-.5-.65-1.16-.58-1.82v-9.25h5.04Z" fill="#003166" stroke-width="0"></path><path id="n" d="M28.42,28.17c-1.16,2.07-2.79,3.83-4.76,5.15-.18.12-.36.23-.56.36-2.33,1.41-4.99,2.15-7.71,2.15-.45,0-.92-.02-1.38-.06-.21-.02-.41-.04-.59-.07-4.66-.64-8.75-3.43-11.06-7.53l-.16-.29H0l.36.8c2.15,4.79,6.37,8.34,11.45,9.64l.09.02c.13.03.26.07.39.1,1.26.29,2.54.43,3.84.43,2.72,0,5.39-.63,7.81-1.87.35-.18.66-.34.93-.51,2.84-1.67,5.15-4.12,6.65-7.06l.2-.39-3.08-1.27-.22.39Z" fill="#ffe052" stroke-width="0"></path><path id="o" d="M28.35,8.55c-2.81-2.53-6.38-4.06-10.14-4.38-.64-1.35-1.39-2.66-2.23-3.9l-.19-.27-3.13,1.3.35.47c.59.79,1.14,1.62,1.64,2.47C7.97,5.09,2.38,9.73.32,16.14l-.03,2.94.59-.02c.61-.03.97-.03,1.56,0,5.64.17,10.99,2.54,14.91,6.61-.64,2.25-1.57,4.41-2.76,6.42l-.5.85h2.18l.17-.26c1.21-1.89,2.19-3.91,2.94-6.02.07-.18.13-.37.19-.55.99-3,1.49-6.13,1.49-9.28,0-3.25-.53-6.47-1.58-9.54,6.15.82,11.16,5.34,12.6,11.38l.1.43h1.78l-.12-.66c-.68-3.81-2.62-7.28-5.49-9.88M17.88,23.49c-3.57-4.14-8.53-6.82-13.94-7.55,2.23-4.87,6.89-8.2,12.22-8.72,1.49,3.44,2.25,7.15,2.24,10.9,0,1.8-.18,3.6-.53,5.37" fill="#ffe052" stroke-width="0"></path></svg> 